<?xml version="1.0" encoding="UTF-8"?>
<svg width="22px" height="12px" viewBox="0 0 22 12" version="1.1" xmlns="http://www.w3.org/2000/svg" xmlns:xlink="http://www.w3.org/1999/xlink">
    <!-- Generator: Sketch 55 (78076) - https://sketchapp.com -->
    <title>back</title>
    <desc>Created with Sketch.</desc>
    <g id="Page-1" stroke="none" stroke-width="1" fill="none" fill-rule="evenodd">
        <g id="Profile" transform="translate(-44.000000, -24.000000)" fill="#535572" fill-rule="nonzero">
            <g id="Navigation">
                <path d="M44,30.000062 C44,30.1735186 44.0763031,30.3388965 44.2089937,30.4519998 L50.5390314,35.8548191 C50.6530061,35.95224 50.7931351,36 50.9323042,36 C51.1019466,36 51.2701494,35.9294293 51.389163,35.7925648 C51.6065549,35.5428347 51.5780012,35.165507 51.3262969,34.9507059 L46.225507,30.5967054 L64.6695009,30.5967054 C65.0023072,30.5967054 65.2727273,30.3293921 65.2727273,29.9998243 C65.2727273,29.6702566 65.0023072,29.4029433 64.6695009,29.4029433 L46.2259869,29.4029433 L51.3262969,25.0494181 C51.5780012,24.8346169 51.6065549,24.4572892 51.389163,24.2075591 C51.1722511,23.9583042 50.7907356,23.9286027 50.5390314,24.1453048 L44.2089937,29.5478865 C44.0763031,29.6612274 44,29.8263677 44,30.000062 Z" id="back"></path>
            </g>
        </g>
    </g>
</svg>